# xmcd
#
# Track frame offsets: 
#        150
#        17860
#        38232
#        59775
#        79910
#        100915
#        120647
#        136722
#        161377
#        181005
#        201892
#
# Disc length: 2943 seconds
#
# Revision: 4
# Processed by: cddbd v1.5.2PL0 Copyright (c) Steve Scherf et al.
# Submitted via: ExactAudioCopy v1.0b3
#
DISCID=8e0b7d0b
DTITLE=Gordon Haskell - The Lady Wants To Know
DYEAR=2004
DGENRE=Rock
TTITLE0=The Lady Wants To Know
TTITLE1=Satisfactiobn Guaranteed
TTITLE2=Tell Me All About It
TTITLE3=All Dressed Up And Nowhere To Go
TTITLE4=Bwana He No Home
TTITLE5=Wonderland
TTITLE6=Hourglass
TTITLE7=When The Cookie Jar Is Empty
TTITLE8=Live Nude Girl
TTITLE9=Antonio's Song
TTITLE10=Monkey See Monkey Do
EXTD=
EXTT0=
EXTT1=
EXTT2=
EXTT3=
EXTT4=
EXTT5=
EXTT6=
EXTT7=
EXTT8=
EXTT9=
EXTT10=
PLAYORDER=
